<?xml version="1.0" encoding="UTF-8"?>
<svg id="Ebene_1" data-name="Ebene 1" xmlns="http://www.w3.org/2000/svg" viewBox="0 0 79.45 71.77">
  <path d="M66.52,6.82c-2.58,0-4.98.75-7,2.06-.13.08-.25.16-.37.25,0,0-.02.01-.03.02-.36.24-.74.47-1.12.68-1.97,1.07-4.22,1.67-6.62,1.67-1.78,0-3.47-.33-5.03-.94-.14-.06-.28-.11-.42-.17,0,0,0,0,0,0-3.1-1.22-6.49-1.89-10.02-1.89-15.13,0-27.39,12.27-27.39,27.4s12.27,27.4,27.39,27.4c12.93,0,23.76-8.96,26.64-21,.06-.32.13-.65.21-.96h0c1-3.89,3.64-7.12,7.15-8.91.37-.19.75-.36,1.14-.52.1-.04.19-.08.29-.11.07-.03.14-.06.21-.09,4.66-1.96,7.93-6.56,7.93-11.93,0-7.14-5.79-12.94-12.94-12.94ZM35.88,55.17c-10.65,0-19.28-8.63-19.28-19.28s8.63-19.28,19.28-19.28,19.29,8.63,19.29,19.28-8.64,19.28-19.29,19.28ZM70.48,26.3c-.49.3-1.02.54-1.57.72-.75.25-1.55.38-2.38.38-2.12,0-4.04-.86-5.42-2.26-1.05-1.06-1.8-2.43-2.09-3.96-.09-.46-.14-.94-.14-1.43,0-2.47,1.17-4.67,3-6.07.46-.35.95-.65,1.49-.89.96-.44,2.04-.68,3.16-.68,4.22,0,7.65,3.42,7.65,7.65,0,2.78-1.48,5.21-3.69,6.55Z"/>
  <path d="M71.77,35.88c0,19.82-16.07,35.88-35.88,35.88S0,55.7,0,35.88,16.07,0,35.89,0c9.05,0,17.32,3.35,23.63,8.88-.13.08-.25.16-.37.25,0,0-.02.01-.03.02-.36.24-.74.47-1.12.68-5.96-5.06-13.68-8.12-22.11-8.12C17.01,1.71,1.71,17.01,1.71,35.88s15.3,34.17,34.18,34.17,34.17-15.3,34.17-34.17c0-1.17-.06-2.34-.17-3.48.37-.19.75-.36,1.14-.52.1-.04.19-.08.29-.11.07-.03.14-.06.21-.09.16,1.38.24,2.78.24,4.2Z"/>
</svg>