<?xml version="1.0" encoding="UTF-8"?>
<svg id="Ebene_1" data-name="Ebene 1" xmlns="http://www.w3.org/2000/svg" viewBox="0 0 481.53 80.45">
  <defs>
    <style>
      .cls-1 {
        fill: #272729;
      }
    </style>
  </defs>
  <path class="cls-1" d="M433.58,50.62c0-5.38,1-10.22,3-14.53,2-4.31,4.83-7.66,8.49-10.06,3.66-2.4,7.8-3.59,12.43-3.59,7.15,0,12.94,2.61,17.37,7.83,4.43,5.22,6.65,12.14,6.65,20.76v1.29c0,5.41-1,10.28-3,14.61-2,4.33-4.82,7.66-8.46,10.01-3.64,2.34-7.79,3.52-12.46,3.52-7.12,0-12.9-2.61-17.35-7.83-4.45-5.22-6.68-12.14-6.68-20.76v-1.24ZM439.54,52.33c0,6.69,1.66,12.18,4.99,16.47,3.33,4.29,7.69,6.44,13.08,6.44s9.71-2.15,13.03-6.44c3.33-4.29,4.99-9.95,4.99-16.99v-1.19c0-4.27-.76-8.19-2.28-11.74-1.52-3.55-3.66-6.3-6.4-8.25-2.75-1.95-5.89-2.92-9.43-2.92-5.29,0-9.61,2.16-12.95,6.49-3.34,4.33-5.01,9.99-5.01,16.99v1.14Z"/>
  <g>
    <path class="cls-1" d="M152.53,29.58c3.94-4.76,8.92-7.14,14.94-7.14,11.45,0,17.26,6.81,17.42,20.42v36.56h-12.06v-36.09c0-3.86-.8-6.59-2.41-8.2-1.61-1.6-3.96-2.4-7.07-2.4-4.83,0-8.44,2.24-10.82,6.72v39.97h-12.06V0h12.06v29.58Z"/>
    <path class="cls-1" d="M208.28,23.48l.35,6.46c3.97-5,9.18-7.5,15.64-7.5,11.19,0,16.88,6.67,17.08,20.01v36.97h-12.06v-36.25c0-3.55-.74-6.18-2.21-7.89-1.47-1.71-3.88-2.56-7.22-2.56-4.86,0-8.49,2.29-10.87,6.88v39.81h-12.06V23.48h11.37Z"/>
    <path class="cls-1" d="M277.27,80.45c-7.65,0-13.84-2.51-18.59-7.52-4.75-5.01-7.12-11.69-7.12-20.04v-1.55c0-5.58,1.04-10.57,3.1-14.97s4.97-7.82,8.71-10.26c3.74-2.45,7.91-3.67,12.51-3.67,7.31,0,12.96,2.43,16.95,7.29,3.99,4.86,5.98,11.74,5.98,20.63v5.07h-35.09c.36,4.62,1.84,8.27,4.44,10.96,2.6,2.69,5.87,4.03,9.8,4.03,5.53,0,10.03-2.33,13.5-6.98l6.5,6.46c-2.15,3.34-5.02,5.94-8.61,7.78-3.59,1.84-7.62,2.77-12.09,2.77ZM275.83,32.52c-3.31,0-5.98,1.21-8.02,3.62-2.03,2.41-3.33,5.77-3.9,10.08h22.98v-.93c-.27-4.21-1.34-7.39-3.23-9.54s-4.5-3.23-7.84-3.23Z"/>
    <path class="cls-1" d="M319.37,23.48l.35,6.46c3.97-5,9.18-7.5,15.64-7.5,11.19,0,16.88,6.67,17.08,20.01v36.97h-12.06v-36.25c0-3.55-.74-6.18-2.21-7.89-1.47-1.71-3.88-2.56-7.22-2.56-4.86,0-8.49,2.29-10.87,6.88v39.81h-12.06V23.48h11.37Z"/>
    <path class="cls-1" d="M379.13,66.55l.9,4.81,1.19-5.07,12.91-42.81h5.06l12.76,42.45,1.39,5.89,1.14-5.43,11.02-42.92h6.16l-15.64,55.95h-5.06l-13.8-44.36-.65-3.05-.65,3.1-13.55,44.31h-5.06l-15.59-55.95h6.1l11.37,43.07Z"/>
  </g>
  <path class="cls-1" d="M82.99,50.93c0-5.48,1.04-10.42,3.13-14.81,2.08-4.39,5.01-7.77,8.79-10.13,3.77-2.36,8.11-3.54,13.01-3.54,7.25,0,13.13,2.43,17.65,7.29,4.52,4.86,6.96,11.31,7.32,19.34l.05,2.95c0,5.52-1.02,10.45-3.05,14.79-2.04,4.34-4.95,7.7-8.74,10.08s-8.17,3.57-13.13,3.57c-7.58,0-13.64-2.63-18.19-7.88-4.55-5.26-6.83-12.26-6.83-21.02v-.62ZM95.05,52.02c0,5.76,1.14,10.27,3.42,13.52,2.29,3.26,5.46,4.89,9.53,4.89s7.24-1.66,9.5-4.96c2.27-3.31,3.4-8.15,3.4-14.53,0-5.65-1.17-10.13-3.5-13.44-2.33-3.31-5.5-4.96-9.5-4.96s-7.07,1.63-9.38,4.89c-2.32,3.26-3.47,8.13-3.47,14.61Z"/>
  <path class="cls-1" d="M68.56,79.41L85.23,4.14h-12.46l-11.12,56.67L48,4.14h-10.52l-13.8,56.57L12.46,4.14H0l14.52,65.56c2.42,5.76,7.99,9.53,14.22,9.69l14.04-54.93,11.32,45.23c2.45,5.83,8.13,9.64,14.45,9.72Z"/>
</svg>