<?xml version="1.0" encoding="UTF-8"?>
<svg id="Ebene_1" data-name="Ebene 1" xmlns="http://www.w3.org/2000/svg" viewBox="0 0 519.12 62.22">
  <defs>
    <style>
      .cls-1 {
        fill: #1d1d1b;
      }

      .cls-2 {
        fill: #4e4d4d;
      }
    </style>
  </defs>
  <path class="cls-1" d="M31.93,34.63l3.46-20.23h10.24l-8.09,34.31h-9.04l-5.68-20.36-5.71,20.36h-9.04L0,14.4h10.24l3.39,20.71,5.45-20.71h7.45l5.39,20.23Z"/>
  <path class="cls-2" d="M48.96,31.23c0-3.36.67-6.39,2-9.08,1.33-2.7,3.2-4.77,5.61-6.22,2.41-1.45,5.18-2.17,8.31-2.17,4.63,0,8.39,1.49,11.27,4.47,2.89,2.98,4.44,6.93,4.68,11.86l.03,1.81c0,3.38-.65,6.41-1.95,9.07-1.3,2.66-3.16,4.72-5.58,6.18s-5.22,2.19-8.39,2.19c-4.84,0-8.72-1.61-11.62-4.83-2.91-3.22-4.36-7.52-4.36-12.89v-.38ZM56.67,31.9c0,3.53.73,6.29,2.19,8.29,1.46,2,3.49,3,6.09,3s4.62-1.01,6.07-3.04,2.17-5,2.17-8.91c0-3.47-.75-6.21-2.24-8.24-1.49-2.03-3.51-3.04-6.07-3.04s-4.51,1-5.99,3c-1.48,2-2.22,4.98-2.22,8.96Z"/>
  <path class="cls-2" d="M105.34,21.44c-1.01-.17-2.06-.25-3.14-.25-3.53,0-5.91,1.35-7.13,4.06v23.47h-7.71V14.4h7.36l.19,3.84c1.86-2.98,4.44-4.47,7.74-4.47,1.1,0,2.01.15,2.73.44l-.03,7.23Z"/>
  <path class="cls-2" d="M118.41,48.71h-7.71V0h7.71v48.71Z"/>
  <path class="cls-2" d="M125.35,31.3c0-5.28,1.23-9.53,3.68-12.73,2.45-3.2,5.74-4.8,9.86-4.8,3.64,0,6.58,1.27,8.82,3.81V0h7.71v48.71h-6.98l-.38-3.55c-2.3,2.79-5.38,4.19-9.23,4.19s-7.27-1.62-9.75-4.85c-2.48-3.23-3.73-7.63-3.73-13.19ZM133.06,31.96c0,3.49.67,6.21,2.01,8.17,1.34,1.96,3.25,2.93,5.72,2.93,3.15,0,5.45-1.41,6.91-4.22v-14.65c-1.42-2.75-3.7-4.12-6.85-4.12-2.5,0-4.42.99-5.77,2.96-1.35,1.98-2.03,4.95-2.03,8.93Z"/>
  <path class="cls-1" d="M192.13,34.63l3.46-20.23h10.24l-8.09,34.31h-9.04l-5.68-20.36-5.71,20.36h-9.04l-8.09-34.31h10.24l3.39,20.71,5.45-20.71h7.45l5.39,20.23Z"/>
  <path class="cls-2" d="M210.62,5.49c0-1.18.38-2.17,1.13-2.95.75-.78,1.82-1.17,3.22-1.17s2.47.39,3.24,1.17c.76.78,1.14,1.77,1.14,2.95s-.38,2.13-1.14,2.9c-.76.77-1.84,1.16-3.24,1.16s-2.47-.39-3.22-1.16c-.75-.77-1.13-1.74-1.13-2.9ZM218.8,48.71h-7.71V14.4h7.71v34.31Z"/>
  <path class="cls-2" d="M225.74,31.3c0-5.28,1.23-9.53,3.68-12.73,2.45-3.2,5.74-4.8,9.86-4.8,3.64,0,6.58,1.27,8.82,3.81V0h7.71v48.71h-6.98l-.38-3.55c-2.3,2.79-5.38,4.19-9.23,4.19s-7.27-1.62-9.75-4.85c-2.48-3.23-3.73-7.63-3.73-13.19ZM233.45,31.96c0,3.49.67,6.21,2.01,8.17,1.34,1.96,3.25,2.93,5.72,2.93,3.15,0,5.45-1.41,6.91-4.22v-14.65c-1.42-2.75-3.7-4.12-6.85-4.12-2.5,0-4.42.99-5.77,2.96-1.35,1.98-2.03,4.95-2.03,8.93Z"/>
  <path class="cls-2" d="M278.95,49.34c-4.88,0-8.84-1.54-11.88-4.61-3.03-3.08-4.55-7.17-4.55-12.29v-.95c0-3.42.66-6.48,1.98-9.18,1.32-2.7,3.18-4.79,5.56-6.29,2.39-1.5,5.05-2.25,7.99-2.25,4.67,0,8.28,1.49,10.83,4.47,2.55,2.98,3.82,7.2,3.82,12.65v3.11h-22.42c.23,2.83,1.18,5.07,2.84,6.72,1.66,1.65,3.75,2.47,6.26,2.47,3.53,0,6.41-1.43,8.62-4.28l4.15,3.96c-1.38,2.05-3.21,3.64-5.5,4.77s-4.87,1.7-7.72,1.7ZM278.04,19.95c-2.11,0-3.82.74-5.12,2.22-1.3,1.48-2.13,3.54-2.49,6.18h14.68v-.57c-.17-2.58-.86-4.53-2.06-5.85-1.21-1.32-2.88-1.98-5.01-1.98Z"/>
  <path class="cls-1" d="M302.75,30.08h18.94v18.63h-18.94v-18.63Z"/>
  <path class="cls-1" d="M332.41,31.3c0-5.35,1.2-9.61,3.6-12.78,2.4-3.17,5.68-4.76,9.85-4.76,3.34,0,6.1,1.25,8.28,3.74V0h9.2v48.71h-8.28l-.44-3.65c-2.28,2.85-5.22,4.28-8.82,4.28-4.04,0-7.28-1.59-9.72-4.77-2.44-3.18-3.66-7.6-3.66-13.27ZM341.57,31.98c0,3.22.56,5.68,1.68,7.4,1.12,1.72,2.75,2.57,4.88,2.57,2.83,0,4.83-1.2,5.99-3.59v-13.56c-1.14-2.39-3.12-3.59-5.93-3.59-4.42,0-6.63,3.59-6.63,10.77Z"/>
  <path class="cls-1" d="M386.22,49.34c-5.03,0-9.13-1.54-12.29-4.63-3.16-3.09-4.74-7.2-4.74-12.34v-.89c0-3.45.67-6.53,2-9.24,1.33-2.72,3.22-4.81,5.66-6.28,2.44-1.47,5.23-2.2,8.36-2.2,4.69,0,8.39,1.48,11.08,4.44,2.7,2.96,4.04,7.16,4.04,12.59v3.74h-21.85c.3,2.24,1.19,4.04,2.68,5.39,1.49,1.35,3.38,2.03,5.66,2.03,3.53,0,6.29-1.28,8.28-3.84l4.5,5.04c-1.38,1.94-3.23,3.46-5.58,4.55s-4.95,1.63-7.8,1.63ZM385.18,21.15c-1.82,0-3.29.62-4.42,1.85-1.13,1.23-1.86,2.99-2.17,5.29h12.75v-.73c-.04-2.04-.59-3.61-1.65-4.73-1.06-1.12-2.56-1.67-4.5-1.67Z"/>
  <path class="cls-2" d="M426.43,39.61c0-1.59-.6-2.82-1.79-3.69s-3.28-1.63-6.25-2.27c-2.97-.63-5.33-1.4-7.07-2.28s-3.03-1.94-3.87-3.17c-.84-1.23-1.25-2.68-1.25-4.38,0-2.81,1.19-5.19,3.57-7.13,2.38-1.94,5.42-2.92,9.12-2.92,3.89,0,7.04,1,9.46,3.01s3.63,4.58,3.63,7.71h-5.9c0-1.61-.68-2.99-2.05-4.15-1.36-1.16-3.08-1.74-5.15-1.74s-3.81.46-5.01,1.4c-1.21.93-1.81,2.15-1.81,3.65,0,1.42.56,2.48,1.68,3.2,1.12.72,3.14,1.41,6.07,2.06,2.93.66,5.3,1.44,7.12,2.35,1.82.91,3.17,2,4.04,3.28.88,1.28,1.32,2.84,1.32,4.68,0,3.07-1.23,5.52-3.68,7.37-2.45,1.85-5.63,2.77-9.54,2.77-2.75,0-5.18-.49-7.29-1.46-2.11-.97-3.77-2.33-4.96-4.08s-1.79-3.63-1.79-5.66h5.87c.11,1.97.89,3.53,2.36,4.68,1.47,1.15,3.41,1.73,5.82,1.73,2.22,0,4-.45,5.34-1.35,1.34-.9,2.01-2.1,2.01-3.6Z"/>
  <path class="cls-2" d="M439.97,5.3c0-.95.29-1.75.87-2.41.58-.66,1.44-.98,2.58-.98s2.01.33,2.6.98.89,1.46.89,2.41-.3,1.74-.89,2.38-1.46.95-2.6.95-2-.32-2.58-.95c-.58-.63-.87-1.43-.87-2.38ZM446.31,48.71h-5.87V14.4h5.87v34.31Z"/>
  <path class="cls-2" d="M454.3,31.27c0-5.35,1.24-9.6,3.71-12.76,2.47-3.16,5.75-4.74,9.83-4.74s7.45,1.48,9.8,4.44l.29-3.81h5.36v33.49c0,4.44-1.32,7.94-3.95,10.5-2.63,2.56-6.17,3.84-10.61,3.84-2.47,0-4.89-.53-7.26-1.59-2.37-1.06-4.18-2.5-5.42-4.34l3.04-3.52c2.52,3.11,5.59,4.66,9.23,4.66,2.85,0,5.08-.8,6.67-2.41,1.6-1.61,2.39-3.87,2.39-6.79v-2.95c-2.35,2.71-5.55,4.06-9.61,4.06s-7.27-1.62-9.75-4.85c-2.48-3.23-3.73-7.64-3.73-13.22ZM460.2,31.93c0,3.87.79,6.91,2.38,9.12,1.59,2.21,3.81,3.31,6.66,3.31,3.7,0,6.42-1.68,8.15-5.04v-15.66c-1.8-3.28-4.49-4.92-8.09-4.92-2.85,0-5.08,1.11-6.69,3.33-1.61,2.22-2.41,5.51-2.41,9.86Z"/>
  <path class="cls-2" d="M497.68,14.4l.19,4.31c2.62-3.3,6.05-4.95,10.27-4.95,7.25,0,10.91,4.09,10.97,12.27v22.67h-5.87v-22.71c-.02-2.47-.59-4.3-1.7-5.49-1.11-1.18-2.84-1.78-5.18-1.78-1.9,0-3.57.51-5.01,1.52-1.44,1.02-2.56,2.35-3.36,4v24.45h-5.87V14.4h5.55Z"/>
</svg>